<?xml version="1.0" encoding="UTF-8" standalone="no"?>
<!-- Created with Inkscape (http://www.inkscape.org/) -->

<svg
   xmlns:dc="http://purl.org/dc/elements/1.1/"
   xmlns:cc="http://creativecommons.org/ns#"
   xmlns:rdf="http://www.w3.org/1999/02/22-rdf-syntax-ns#"
   xmlns:svg="http://www.w3.org/2000/svg"
   xmlns="http://www.w3.org/2000/svg"
   xmlns:sodipodi="http://sodipodi.sourceforge.net/DTD/sodipodi-0.dtd"
   xmlns:inkscape="http://www.inkscape.org/namespaces/inkscape"
   width="375"
   height="200"
   viewBox="0 0 99.218747 52.91667"
   version="1.1"
   id="svg1638"
   inkscape:version="0.92.4 (5da689c313, 2019-01-14)"
   sodipodi:docname="background-mobile.svg"
   inkscape:export-filename="\\wsl$\Ubuntu\home\wjmn\code\cigmah\static\img\background-mobile.png"
   inkscape:export-xdpi="150"
   inkscape:export-ydpi="150">
  <defs
     id="defs1632">
    <clipPath
       clipPathUnits="userSpaceOnUse"
       id="clipPath2185">
      <rect
         style="opacity:1;fill:none;fill-opacity:1;stroke:#4299e1;stroke-width:0.03572132;stroke-linecap:round;stroke-linejoin:round;stroke-miterlimit:4;stroke-dasharray:none;stroke-dashoffset:0;stroke-opacity:1"
         id="rect2187"
         width="6.6977463"
         height="4.8678527"
         x="19.095835"
         y="275.71555" />
    </clipPath>
  </defs>
  <sodipodi:namedview
     id="base"
     pagecolor="#ffffff"
     bordercolor="#666666"
     borderopacity="1.0"
     inkscape:pageopacity="0.0"
     inkscape:pageshadow="2"
     inkscape:zoom="1.4"
     inkscape:cx="144.56473"
     inkscape:cy="113.81442"
     inkscape:document-units="mm"
     inkscape:current-layer="layer1"
     showgrid="false"
     units="px"
     inkscape:snap-page="true"
     inkscape:window-width="1920"
     inkscape:window-height="1027"
     inkscape:window-x="-8"
     inkscape:window-y="22"
     inkscape:window-maximized="1" />
  <metadata
     id="metadata1635">
    <rdf:RDF>
      <cc:Work
         rdf:about="">
        <dc:format>image/svg+xml</dc:format>
        <dc:type
           rdf:resource="http://purl.org/dc/dcmitype/StillImage" />
        <dc:title></dc:title>
      </cc:Work>
    </rdf:RDF>
  </metadata>
  <g
     inkscape:label="Layer 1"
     inkscape:groupmode="layer"
     id="layer1"
     transform="translate(0,-244.0833)">
    <g
       style="display:inline"
       inkscape:label="Layer 1"
       id="g2011"
       transform="matrix(14.81375,0,0,14.81375,-282.88092,-3850.1961)"
       clip-path="url(#clipPath2185)">
      <path
         style="fill:#000000;fill-opacity:1;stroke:#000000;stroke-width:0;stroke-linecap:round;stroke-miterlimit:4;stroke-dasharray:none;stroke-dashoffset:0;stroke-opacity:1"
         d="M -409.07422,96.007812 A 560.53772,560.53828 0 0 0 -969.61328,656.54688 560.53772,560.53828 0 0 0 -409.07422,1217.084 560.53772,560.53828 0 0 0 151.46289,656.54688 560.53772,560.53828 0 0 0 77.863281,380.62695 v 4.22071 H -0.17578125 V 282.85352 H 77.863281 v 0.002 H 244.88477 c 93.42292,0 93.42382,-93.42383 93.42382,-93.42383 0,0 -9e-4,-93.423828 -93.42382,-93.423828 z m 0,186.847658 A 373.6918,373.69237 0 0 1 -35.382812,656.54688 373.6918,373.69237 0 0 1 -409.07422,1030.2383 373.6918,373.69237 0 0 1 -782.76758,656.54688 373.6918,373.69237 0 0 1 -409.07422,282.85547 Z"
         id="path2003"
         transform="matrix(0.01786066,0,0,0.01786066,19.014595,274.7967)"
         inkscape:connector-curvature="0" />
      <circle
         r="0.83429778"
         cy="278.18005"
         cx="23.388414"
         id="circle2005"
         style="fill:#ffffff;fill-opacity:1;stroke:none;stroke-width:1.0510838;stroke-linecap:round;stroke-miterlimit:4;stroke-dasharray:none;stroke-dashoffset:0;stroke-opacity:1" />
    </g>
  </g>
</svg>
